REM DIRINDEX 1\2,1\3,1\4,1\5\6,1\5\7,1\8
REM DIRNAME cjc115,folder01,folder02,folder03,folder04,folder05,folder06,folder07
TITLE ""
FILE "121 【121】Unit7 (1369 condiment_1380 candid).mp3" MP3
  TRACK 01 AUDIO
    TITLE "0:"
    INDEX 01 00:00:00
  TRACK 02 AUDIO
    TITLE "2:cjc115_4722"
    INDEX 01 00:00:07
  TRACK 03 AUDIO
    TITLE "0:"
    INDEX 01 00:01:21
  TRACK 04 AUDIO
    TITLE "3:cjc115_4723"
    INDEX 01 00:01:26
  TRACK 05 AUDIO
    TITLE "0:"
    INDEX 01 00:03:41
  TRACK 06 AUDIO
    TITLE "4:cjc115_4724"
    INDEX 01 00:03:47
  TRACK 07 AUDIO
    TITLE "0:"
    INDEX 01 00:06:47
  TRACK 08 AUDIO
    TITLE "2:cjc115_4725"
    INDEX 01 00:07:52
  TRACK 09 AUDIO
    TITLE "0:"
    INDEX 01 00:09:00
  TRACK 10 AUDIO
    TITLE "3:cjc115_4726"
    INDEX 01 00:09:04
  TRACK 11 AUDIO
    TITLE "0:"
    INDEX 01 00:11:13
  TRACK 12 AUDIO
    TITLE "4:cjc115_4727"
    INDEX 01 00:11:19
  TRACK 13 AUDIO
    TITLE "0:"
    INDEX 01 00:15:44
  TRACK 14 AUDIO
    TITLE "2:cjc115_4728"
    INDEX 01 00:16:48
  TRACK 15 AUDIO
    TITLE "0:"
    INDEX 01 00:18:01
  TRACK 16 AUDIO
    TITLE "3:cjc115_4729"
    INDEX 01 00:18:09
  TRACK 17 AUDIO
    TITLE "0:"
    INDEX 01 00:19:67
  TRACK 18 AUDIO
    TITLE "4:cjc115_4730"
    INDEX 01 00:20:02
  TRACK 19 AUDIO
    TITLE "0:"
    INDEX 01 00:24:27
  TRACK 20 AUDIO
    TITLE "2:cjc115_4731"
    INDEX 01 00:25:37
  TRACK 21 AUDIO
    TITLE "0:"
    INDEX 01 00:26:50
  TRACK 22 AUDIO
    TITLE "3:cjc115_4732"
    INDEX 01 00:26:62
  TRACK 23 AUDIO
    TITLE "0:"
    INDEX 01 00:28:47
  TRACK 24 AUDIO
    TITLE "4:cjc115_4733"
    INDEX 01 00:28:64
  TRACK 25 AUDIO
    TITLE "0:"
    INDEX 01 00:33:07
  TRACK 26 AUDIO
    TITLE "2:cjc115_4734"
    INDEX 01 00:34:18
  TRACK 27 AUDIO
    TITLE "0:"
    INDEX 01 00:35:35
  TRACK 28 AUDIO
    TITLE "3:cjc115_4735"
    INDEX 01 00:35:43
  TRACK 29 AUDIO
    TITLE "0:"
    INDEX 01 00:38:55
  TRACK 30 AUDIO
    TITLE "4:cjc115_4736"
    INDEX 01 00:38:57
  TRACK 31 AUDIO
    TITLE "0:"
    INDEX 01 00:42:31
  TRACK 32 AUDIO
    TITLE "2:cjc115_4737"
    INDEX 01 00:43:39
  TRACK 33 AUDIO
    TITLE "0:"
    INDEX 01 00:44:60
  TRACK 34 AUDIO
    TITLE "3:cjc115_4738"
    INDEX 01 00:44:65
  TRACK 35 AUDIO
    TITLE "0:"
    INDEX 01 00:47:13
  TRACK 36 AUDIO
    TITLE "4:cjc115_4739"
    INDEX 01 00:47:21
  TRACK 37 AUDIO
    TITLE "0:"
    INDEX 01 00:51:15
  TRACK 38 AUDIO
    TITLE "2:cjc115_4740"
    INDEX 01 00:52:18
  TRACK 39 AUDIO
    TITLE "0:"
    INDEX 01 00:53:39
  TRACK 40 AUDIO
    TITLE "3:cjc115_4741"
    INDEX 01 00:53:51
  TRACK 41 AUDIO
    TITLE "0:"
    INDEX 01 00:55:44
  TRACK 42 AUDIO
    TITLE "4:cjc115_4742"
    INDEX 01 00:55:48
  TRACK 43 AUDIO
    TITLE "0:"
    INDEX 01 00:59:18
  TRACK 44 AUDIO
    TITLE "2:cjc115_4743"
    INDEX 01 01:00:27
  TRACK 45 AUDIO
    TITLE "0:"
    INDEX 01 01:01:36
  TRACK 46 AUDIO
    TITLE "3:cjc115_4744"
    INDEX 01 01:01:46
  TRACK 47 AUDIO
    TITLE "0:"
    INDEX 01 01:03:65
  TRACK 48 AUDIO
    TITLE "4:cjc115_4745"
    INDEX 01 01:04:00
  TRACK 49 AUDIO
    TITLE "0:"
    INDEX 01 01:07:57
  TRACK 50 AUDIO
    TITLE "2:cjc115_4746"
    INDEX 01 01:08:66
  TRACK 51 AUDIO
    TITLE "0:"
    INDEX 01 01:10:06
  TRACK 52 AUDIO
    TITLE "3:cjc115_4747"
    INDEX 01 01:10:14
  TRACK 53 AUDIO
    TITLE "0:"
    INDEX 01 01:11:45
  TRACK 54 AUDIO
    TITLE "4:cjc115_4748"
    INDEX 01 01:11:54
  TRACK 55 AUDIO
    TITLE "0:"
    INDEX 01 01:15:15
  TRACK 56 AUDIO
    TITLE "2:cjc115_4749"
    INDEX 01 01:16:24
  TRACK 57 AUDIO
    TITLE "0:"
    INDEX 01 01:17:47
  TRACK 58 AUDIO
    TITLE "3:cjc115_4750"
    INDEX 01 01:17:55
  TRACK 59 AUDIO
    TITLE "0:"
    INDEX 01 01:19:27
  TRACK 60 AUDIO
    TITLE "4:cjc115_4751"
    INDEX 01 01:19:30
  TRACK 61 AUDIO
    TITLE "0:"
    INDEX 01 01:23:40
  TRACK 62 AUDIO
    TITLE "2:cjc115_4752"
    INDEX 01 01:24:47
  TRACK 63 AUDIO
    TITLE "0:"
    INDEX 01 01:25:64
  TRACK 64 AUDIO
    TITLE "3:cjc115_4753"
    INDEX 01 01:25:70
  TRACK 65 AUDIO
    TITLE "0:"
    INDEX 01 01:27:34
  TRACK 66 AUDIO
    TITLE "4:cjc115_4754"
    INDEX 01 01:27:44
  TRACK 67 AUDIO
    TITLE "0:"
    INDEX 01 01:31:26
  TRACK 68 AUDIO
    TITLE "2:cjc115_4755"
    INDEX 01 01:32:37
  TRACK 69 AUDIO
    TITLE "0:"
    INDEX 01 01:33:42
  TRACK 70 AUDIO
    TITLE "3:cjc115_4756"
    INDEX 01 01:33:50
  TRACK 71 AUDIO
    TITLE "0:"
    INDEX 01 01:34:71
  TRACK 72 AUDIO
    TITLE "4:cjc115_4757"
    INDEX 01 01:35:02
  TRACK 73 AUDIO
    TITLE "0:"
    INDEX 01 01:37:50
